<svg data-name="Ebene 1" xmlns="http://www.w3.org/2000/svg" viewBox="0 0 187.11 187.72"><defs><clipPath id="a" transform="translate(-40.81 -40.26)"><path fill="none" d="M40.81 40.27h187.1v187.72H40.81z"/></clipPath></defs><title>payback-logo-square</title><g clip-path="url(#a)"><rect width="187.11" height="187.72" rx="32.11" ry="32.11" fill="#fff"/><path d="M175.38 155.61a20.55 20.55 0 0 1-20.53 20.58H31.26a20.56 20.56 0 0 1-20.54-20.58V32.1a20.56 20.56 0 0 1 20.54-20.58h123.6a20.56 20.56 0 0 1 20.53 20.58z" fill="#1d4b9b"/><path d="M52.67 36.63A16.47 16.47 0 1 0 69.14 53.1a16.48 16.48 0 0 0-16.47-16.47m0 29.65A13.17 13.17 0 1 1 65.85 53.1a13.17 13.17 0 0 1-13.18 13.18m40.76-29.65a16.47 16.47 0 1 0 16.46 16.47 16.48 16.48 0 0 0-16.47-16.47m0 29.65A13.17 13.17 0 1 1 106.6 53.1a13.17 13.17 0 0 1-13.18 13.18m40.77-29.64a16.47 16.47 0 1 0 16.47 16.47 16.46 16.46 0 0 0-16.47-16.47m-81.52 81.5a16.47 16.47 0 1 0 16.47 16.47 16.48 16.48 0 0 0-16.47-16.47m0 29.65a13.17 13.17 0 1 1 13.18-13.18 13.17 13.17 0 0 1-13.18 13.13m40.76-29.6a16.47 16.47 0 1 0 16.47 16.47 16.48 16.48 0 0 0-16.47-16.47m0 29.65a13.17 13.17 0 1 1 13.18-13.18 13.18 13.18 0 0 1-13.18 13.13m40.76-29.59a16.47 16.47 0 1 0 16.47 16.46 16.46 16.46 0 0 0-16.47-16.46M52.67 77.38a16.47 16.47 0 1 0 16.47 16.47 16.48 16.48 0 0 0-16.47-16.47m0 29.65a13.17 13.17 0 1 1 13.18-13.18 13.17 13.17 0 0 1-13.18 13.18m40.76-29.64a16.47 16.47 0 1 0 16.47 16.46 16.47 16.47 0 0 0-16.47-16.46m40.76 0a16.47 16.47 0 1 0 16.47 16.46 16.46 16.46 0 0 0-16.47-16.46" fill="#fff"/></g></svg>