<?xml version="1.0" encoding="UTF-8" standalone="no"?>
<!-- Generator: Adobe Illustrator 19.1.0, SVG Export Plug-In . SVG Version: 6.00 Build 0)  -->

<svg
   xmlns:dc="http://purl.org/dc/elements/1.1/"
   xmlns:cc="http://creativecommons.org/ns#"
   xmlns:rdf="http://www.w3.org/1999/02/22-rdf-syntax-ns#"
   xmlns:svg="http://www.w3.org/2000/svg"
   xmlns="http://www.w3.org/2000/svg"
   xmlns:sodipodi="http://sodipodi.sourceforge.net/DTD/sodipodi-0.dtd"
   xmlns:inkscape="http://www.inkscape.org/namespaces/inkscape"
   version="1.1"
   x="0px"
   y="0px"
   viewBox="0 0 118 46"
   style="enable-background:new 0 0 118 46;"
   xml:space="preserve"
   id="svg57"
   sodipodi:docname="payback_logo_highres.svg"
   inkscape:version="0.92.2 (5c3e80d, 2017-08-06)"><metadata
     id="metadata63"><rdf:RDF><cc:Work
         rdf:about=""><dc:format>image/svg+xml</dc:format><dc:type
           rdf:resource="http://purl.org/dc/dcmitype/StillImage" /></cc:Work></rdf:RDF></metadata><defs
     id="defs61"><clipPath
       id="a"
       transform="translate(-40.81 -40.26)"><path
         style="fill:none"
         inkscape:connector-curvature="0"
         d="m 40.81,40.27 h 187.1 V 227.99 H 40.81 Z"
         id="path2" /></clipPath></defs><sodipodi:namedview
     pagecolor="#ffffff"
     bordercolor="#666666"
     borderopacity="1"
     objecttolerance="10"
     gridtolerance="10"
     guidetolerance="10"
     inkscape:pageopacity="0"
     inkscape:pageshadow="2"
     inkscape:window-width="1920"
     inkscape:window-height="1001"
     id="namedview59"
     showgrid="false"
     inkscape:zoom="2.3137004"
     inkscape:cx="121.44415"
     inkscape:cy="40.039369"
     inkscape:window-x="-9"
     inkscape:window-y="-9"
     inkscape:window-maximized="1"
     inkscape:current-layer="svg57" /><style
     type="text/css"
     id="style2">
	.st0{fill:#FFFFFF;stroke:#7F0404;stroke-width:0.25;stroke-miterlimit:10;}
	.st1{fill:#FFFFFF;}
	.st2{fill:#0046AA;}
	.st3{fill-rule:evenodd;clip-rule:evenodd;fill:#FFFFFF;}
</style><g
     id="Outline"><rect
       x="46.7"
       y="5.3"
       class="st0"
       width="34"
       height="40"
       id="rect4" /></g><g
     id="Badge" /><path
     style="fill:#ffffff"
     inkscape:connector-curvature="0"
     id="path8"
     d="M 8,45.8 C 3.7,45.8 0.2,42.3 0.2,38 V 8 C 0.2,3.7 3.7,0.2 8,0.2 h 102 c 4.3,0 7.8,3.5 7.8,7.8 v 30 c 0,4.3 -3.5,7.8 -7.8,7.8 z"
     class="st1" /><path
     class="st2"
     d="m 115,38 c 0,2.8 -2.2,5 -5,5 H 8 C 5.2,43 3,40.8 3,38 V 8 C 3,5.2 5.2,3 8,3 h 102 c 2.8,0 5,2.2 5,5 z"
     id="path12"
     inkscape:connector-curvature="0"
     style="fill:#0046aa" /><path
     class="st1"
     d="m 83.2,9.1 c -2.2,0 -4,1.8 -4,4 0,2.2 1.8,4 4,4 2.2,0 4,-1.8 4,-4 0,-2.2 -1.8,-4 -4,-4 z m 0,7.2 c -1.8,0 -3.2,-1.4 -3.2,-3.2 0,-1.8 1.4,-3.2 3.2,-3.2 1.8,0 3.2,1.4 3.2,3.2 0,1.8 -1.4,3.2 -3.2,3.2 z"
     id="path14"
     inkscape:connector-curvature="0"
     style="fill:#ffffff" /><path
     class="st1"
     d="m 93.1,9.1 c -2.2,0 -4,1.8 -4,4 0,2.2 1.8,4 4,4 2.2,0 4,-1.8 4,-4 0,-2.2 -1.8,-4 -4,-4 z m 0,7.2 c -1.8,0 -3.2,-1.4 -3.2,-3.2 0,-1.8 1.4,-3.2 3.2,-3.2 1.8,0 3.2,1.4 3.2,3.2 0,1.8 -1.4,3.2 -3.2,3.2 z"
     id="path16"
     inkscape:connector-curvature="0"
     style="fill:#ffffff" /><path
     class="st1"
     d="m 103,9.1 c -2.2,0 -4,1.8 -4,4 0,2.2 1.8,4 4,4 2.2,0 4,-1.8 4,-4 0,-2.2 -1.8,-4 -4,-4 z"
     id="path18"
     inkscape:connector-curvature="0"
     style="fill:#ffffff" /><path
     class="st1"
     d="m 83.2,28.9 c -2.2,0 -4,1.8 -4,4 0,2.2 1.8,4 4,4 2.2,0 4,-1.8 4,-4 0,-2.2 -1.8,-4 -4,-4 z m 0,7.2 c -1.8,0 -3.2,-1.4 -3.2,-3.2 0,-1.8 1.4,-3.2 3.2,-3.2 1.8,0 3.2,1.4 3.2,3.2 0,1.8 -1.4,3.2 -3.2,3.2 z"
     id="path20"
     inkscape:connector-curvature="0"
     style="fill:#ffffff" /><path
     class="st1"
     d="m 93.1,28.9 c -2.2,0 -4,1.8 -4,4 0,2.2 1.8,4 4,4 2.2,0 4,-1.8 4,-4 0,-2.2 -1.8,-4 -4,-4 z m 0,7.2 c -1.8,0 -3.2,-1.4 -3.2,-3.2 0,-1.8 1.4,-3.2 3.2,-3.2 1.8,0 3.2,1.4 3.2,3.2 0,1.8 -1.4,3.2 -3.2,3.2 z"
     id="path22"
     inkscape:connector-curvature="0"
     style="fill:#ffffff" /><path
     class="st1"
     d="m 103,28.9 c -2.2,0 -4,1.8 -4,4 0,2.2 1.8,4 4,4 2.2,0 4,-1.8 4,-4 0,-2.2 -1.8,-4 -4,-4 z"
     id="path24"
     inkscape:connector-curvature="0"
     style="fill:#ffffff" /><path
     class="st1"
     d="m 83.2,19 c -2.2,0 -4,1.8 -4,4 0,2.2 1.8,4 4,4 2.2,0 4,-1.8 4,-4 0,-2.2 -1.8,-4 -4,-4 z m 0,7.2 C 81.4,26.2 80,24.8 80,23 c 0,-1.8 1.4,-3.2 3.2,-3.2 1.8,0 3.2,1.4 3.2,3.2 0,1.8 -1.4,3.2 -3.2,3.2 z"
     id="path26"
     inkscape:connector-curvature="0"
     style="fill:#ffffff" /><path
     class="st1"
     d="m 93.1,19 c -2.2,0 -4,1.8 -4,4 0,2.2 1.8,4 4,4 2.2,0 4,-1.8 4,-4 0,-2.2 -1.8,-4 -4,-4 z"
     id="path28"
     inkscape:connector-curvature="0"
     style="fill:#ffffff" /><path
     class="st1"
     d="m 103,19 c -2.2,0 -4,1.8 -4,4 0,2.2 1.8,4 4,4 2.2,0 4,-1.8 4,-4 0,-2.2 -1.8,-4 -4,-4 z"
     id="path30"
     inkscape:connector-curvature="0"
     style="fill:#ffffff" /><path
     class="st1"
     d="m 12.6,14.2 c -1.5,0 -2.8,1.3 -2.8,2.8 0,1.5 1.3,2.8 2.8,2.8 1.5,0 2.8,-1.3 2.8,-2.8 0,-1.5 -1.3,-2.8 -2.8,-2.8 z m 0,4.7 c -1,0 -1.9,-0.9 -1.9,-1.9 0,-1 0.9,-1.9 1.9,-1.9 1,0 1.9,0.9 1.9,1.9 0,1 -0.9,1.9 -1.9,1.9 z"
     id="path34"
     inkscape:connector-curvature="0"
     style="fill:#ffffff" /><path
     class="st3"
     d="M 24.4,17.3 C 24.4,15.2 23,14.4 21,14.4 H 17.3 V 23 h 2.4 v -2.8 h 1.2 c 2,0 3.5,-0.7 3.5,-2.9 z m -2.4,0 c 0,0.7 -0.3,1 -1.1,1 h -1.3 v -2 H 21 c 0.7,0 1,0.4 1,1 z"
     id="path36"
     inkscape:connector-curvature="0"
     style="clip-rule:evenodd;fill:#ffffff;fill-rule:evenodd" /><path
     class="st3"
     d="M 32.9,23 29.8,14.4 H 27.4 L 24.2,23 h 2.4 l 0.5,-1.7 h 3 L 30.6,23 Z M 29.7,19.7 H 27.4 L 27.7,19 c 0.5,-1.3 0.7,-1.9 0.9,-2.6 0.2,0.7 0.4,1.2 0.9,2.6 z"
     id="path38"
     inkscape:connector-curvature="0"
     style="clip-rule:evenodd;fill:#ffffff;fill-rule:evenodd" /><path
     class="st1"
     d="m 38.1,14.4 -0.7,1.3 c -0.5,0.9 -0.8,1.7 -1,2.2 0,0 0,0 0,0 -0.2,-0.5 -0.5,-1.3 -1,-2.2 L 34.7,14.4 H 32 l 3.2,5.4 V 23 h 2.4 v -3.2 l 3.2,-5.4 z"
     id="path40"
     inkscape:connector-curvature="0"
     style="fill:#ffffff" /><path
     class="st3"
     d="m 49.3,20.2 c 0,-1 -0.5,-1.6 -1.2,-1.9 0.6,-0.3 1,-0.7 1,-1.7 0,-1.4 -0.9,-2.2 -3,-2.2 H 41.9 V 23 h 4.2 c 2.1,0 3.2,-1 3.2,-2.8 z M 46.9,17 c 0,0.4 -0.2,0.7 -0.8,0.7 h -2 v -1.5 h 2 c 0.6,0 0.8,0.4 0.8,0.8 z m 0.2,3.3 c 0,0.5 -0.3,0.9 -1,0.9 H 44 v -1.8 h 2.1 c 0.7,0 1,0.3 1,0.9 z"
     id="path42"
     inkscape:connector-curvature="0"
     style="clip-rule:evenodd;fill:#ffffff;fill-rule:evenodd" /><path
     class="st3"
     d="M 58.6,23 55.5,14.4 H 53.1 L 49.9,23 h 2.4 l 0.5,-1.7 h 3 L 56.3,23 Z M 55.4,19.7 H 53.1 L 53.4,19 c 0.5,-1.3 0.7,-1.9 0.9,-2.6 0.2,0.7 0.4,1.2 0.9,2.6 z"
     id="path44"
     inkscape:connector-curvature="0"
     style="clip-rule:evenodd;fill:#ffffff;fill-rule:evenodd" /><path
     class="st1"
     d="m 66.7,20.9 -2,-1.1 c -0.5,0.8 -0.8,1.2 -1.6,1.2 -1,0 -1.5,-1 -1.5,-2.4 0,-1.4 0.4,-2.4 1.4,-2.4 0.8,0 1.1,0.5 1.4,1.3 l 2.2,-0.8 C 66,15.1 65.2,14.2 63,14.2 c -2.3,0 -4,1.7 -4,4.4 0,2.5 1.4,4.4 4,4.4 2.2,0.1 3.1,-0.9 3.7,-2.1 z"
     id="path46"
     inkscape:connector-curvature="0"
     style="fill:#ffffff" /><path
     class="st1"
     d="m 76,23 -2.9,-5.6 2.6,-3 H 73 l -0.8,0.9 c -0.6,0.7 -1.4,1.6 -1.8,2.2 0,0 0,0 0,0.1 0,-0.6 0,-1.4 0,-2.1 v -1 H 68 V 23 h 2.5 v -2.6 l 0.9,-1 0.1,-0.1 2,3.7 z"
     id="path48"
     inkscape:connector-curvature="0"
     style="fill:#ffffff" /><path
     style="fill:#1d4b9b"
     inkscape:connector-curvature="0"
     id="path11"
     d="m 455.68829,67.715631 a 20.55,20.55 0 0 1 -20.53,20.58 h -123.59 a 20.56,20.56 0 0 1 -20.54,-20.58 v -123.51 a 20.56,20.56 0 0 1 20.54,-20.58 h 123.6 a 20.56,20.56 0 0 1 20.53,20.58 z" /><path
     style="fill:#0046aa;fill-opacity:1"
     d="M -138.97266 -59.880859 A 16.47 16.47 0 1 0 -122.50391 -43.412109 A 16.48 16.48 0 0 0 -138.97266 -59.880859 z M -139.5 -56.560547 A 13.17 13.17 0 0 1 -125.79297 -43.412109 A 13.17 13.17 0 0 1 -138.97266 -30.232422 A 13.17 13.17 0 0 1 -139.5 -56.560547 z "
     id="path915"
     inkscape:export-xdpi="53.677444"
     inkscape:export-ydpi="53.677444"
     inkscape:export-filename="C:\Users\asus\Desktop\path13.png" /><path
     style="fill:#0046aa;fill-opacity:1"
     d="m -98.213329,-59.881667 a 16.47,16.47 0 1 0 16.46,16.47 16.48,16.48 0 0 0 -16.47,-16.47"
     id="path911"
     inkscape:export-xdpi="53.677444"
     inkscape:export-ydpi="53.677444"
     inkscape:export-filename="C:\Users\asus\Desktop\path13.png" /><path
     style="fill:#0046aa;fill-opacity:1"
     d="m -57.453329,-59.871667 a 16.47,16.47 0 1 0 16.47,16.47 16.46,16.46 0 0 0 -16.47,-16.47"
     id="path907"
     inkscape:export-xdpi="53.677444"
     inkscape:export-ydpi="53.677444"
     inkscape:export-filename="C:\Users\asus\Desktop\path13.png" /><path
     style="fill:#0046aa;fill-opacity:1"
     d="M -138.97266 21.628906 A 16.47 16.47 0 1 0 -122.50391 38.097656 A 16.48 16.48 0 0 0 -138.97266 21.628906 z M -139.5 24.949219 A 13.17 13.17 0 0 1 -125.79297 38.097656 A 13.17 13.17 0 0 1 -138.97266 51.228516 L -138.97266 51.279297 A 13.17 13.17 0 0 1 -139.5 24.949219 z "
     id="path905"
     inkscape:export-xdpi="53.677444"
     inkscape:export-ydpi="53.677444"
     inkscape:export-filename="C:\Users\asus\Desktop\path13.png" /><path
     style="fill:#0046aa;fill-opacity:1"
     d="m -98.213329,21.628333 a 16.47,16.47 0 1 0 16.47,16.47 16.48,16.48 0 0 0 -16.47,-16.47"
     id="path901"
     inkscape:export-xdpi="53.677444"
     inkscape:export-ydpi="53.677444"
     inkscape:export-filename="C:\Users\asus\Desktop\path13.png" /><path
     style="fill:#0046aa;fill-opacity:1"
     d="M -57.453125 21.638672 A 16.47 16.47 0 1 0 -40.982422 38.097656 A 16.46 16.46 0 0 0 -57.453125 21.638672 z M -58.095703 24.949219 A 13.17 13.17 0 0 1 -44.388672 38.097656 A 13.18 13.18 0 0 1 -57.568359 51.228516 L -57.568359 51.279297 A 13.17 13.17 0 0 1 -58.095703 24.949219 z "
     id="path897"
     inkscape:export-xdpi="53.677444"
     inkscape:export-ydpi="53.677444"
     inkscape:export-filename="C:\Users\asus\Desktop\path13.png" /><path
     style="fill:#0046aa;fill-opacity:1"
     d="M -138.97266 -19.130859 A 16.47 16.47 0 1 0 -122.50391 -2.6621094 A 16.48 16.48 0 0 0 -138.97266 -19.130859 z M -139.5 -15.810547 A 13.17 13.17 0 0 1 -125.79297 -2.6621094 A 13.17 13.17 0 0 1 -138.97266 10.517578 A 13.17 13.17 0 0 1 -139.5 -15.810547 z "
     id="path895"
     inkscape:export-xdpi="53.677444"
     inkscape:export-ydpi="53.677444"
     inkscape:export-filename="C:\Users\asus\Desktop\path13.png" /><path
     style="fill:#0046aa;fill-opacity:1"
     d="m -98.213329,-19.121667 a 16.47,16.47 0 1 0 16.47,16.46 16.47,16.47 0 0 0 -16.47,-16.46"
     id="path891"
     inkscape:export-xdpi="53.677444"
     inkscape:export-ydpi="53.677444"
     inkscape:export-filename="C:\Users\asus\Desktop\path13.png" /><path
     style="fill:#0046aa;fill-opacity:1"
     d="m -57.453329,-19.121667 a 16.47,16.47 0 1 0 16.47,16.46 16.46,16.46 0 0 0 -16.47,-16.46"
     id="path13"
     inkscape:export-xdpi="53.677444"
     inkscape:export-ydpi="53.677444"
     inkscape:export-filename="C:\Users\asus\Desktop\path13.png" /><path
     style="fill:#1d4b9b;fill-opacity:1;stroke-width:0.99999994"
     d="m 48.581347,-59.780588 c -3.004774,0 -5.608777,2.664229 -5.608777,5.738498 0,3.07427 2.604003,5.738499 5.608777,5.738499 3.004775,0 5.608777,-2.664229 5.608777,-5.738499 0,-3.074269 -2.604002,-5.738498 -5.608777,-5.738498 z m 0,3.484123 c 1.159933,0 2.203414,1.067615 2.203414,2.254375 0,1.186761 -1.043481,2.255352 -2.203414,2.255352 -1.159933,0 -2.204369,-1.068591 -2.204369,-2.255352 0,-1.18676 1.044436,-2.254375 2.204369,-2.254375 z"
     id="path1009"
     inkscape:connector-curvature="0"
     inkscape:export-xdpi="86.07"
     inkscape:export-ydpi="86.07" /><path
     style="clip-rule:evenodd;fill:#1d4b9b;fill-opacity:1;fill-rule:evenodd;stroke-width:0.99999994"
     inkscape:connector-curvature="0"
     id="path1003"
     d="M 78.647221,-47.887367 C 78.318632,-56.487256 74.380037,-59.77207 68.284055,-59.77207 H 57.006488 v 35.244292 h 5.315178 v -11.474886 h 5.65759 c 8.121833,0 10.940994,-4.73892 10.667965,-11.884703 z m -5.315175,0 c 0,2.868722 -0.914397,6.098174 -3.35279,6.098174 H 62.016868 V -53.98554 h 8.267187 c 2.133594,0 3.047991,3.639269 3.047991,6.098173 z"
     class="st3"
     inkscape:export-xdpi="86.07"
     inkscape:export-ydpi="86.07"
     sodipodi:nodetypes="ssccccssssccss" /></svg>